<svg xmlns="http://www.w3.org/2000/svg" viewBox="7785 -1817 538.214 342.5">
  <defs>
    <style>
      .cls-1 {
        fill: #fff;
        fill-rule: evenodd;
      }
    </style>
  </defs>
  <path id="Group_76" data-name="Group 76" class="cls-1" d="M172.25,200.715C115.167,200.715,1,229.256,1,286.339V347.5H343.5V286.339c0-57.083-114.167-85.625-171.25-85.625m195.714,0a233.044,233.044,0,0,0-23.616,1.3,102.88,102.88,0,0,1,48.08,84.32V347.5H539.214V286.339c0-57.083-114.167-85.625-171.25-85.625M172.25,5a73.393,73.393,0,1,0,73.164,73.393A73.393,73.393,0,0,0,172.25,5M367.964,5A73.393,73.393,0,1,0,441.1,78.393,73.393,73.393,0,0,0,367.964,5" transform="translate(7784 -1822)"/>
</svg>
