<?xml version="1.0"?><svg width="640" height="480" xmlns="http://www.w3.org/2000/svg">
 <title>google map grey marker</title>
 <g>
  <title>Layer 1</title>
  <g id="svg_1">
   <path fill-rule="evenodd" clip-rule="evenodd" fill="#ffffff" stroke="#8e8e8e" stroke-width="12" stroke-miterlimit="10" d="m258.635376,405.144104c-7.907852,-40.050018 -21.850601,-73.378723 -38.738327,-104.268372c-12.526413,-22.912781 -27.037628,-44.061737 -40.464279,-66.280609c-4.482056,-7.417328 -8.350098,-15.253235 -12.656967,-22.951111c-8.611633,-15.392136 -15.593811,-33.238388 -15.150131,-56.387939c0.433487,-22.618317 6.774094,-40.761978 15.917343,-55.596596c15.037949,-24.399216 40.227051,-44.403915 74.024734,-49.661133c27.633698,-4.29834 53.542297,2.963657 71.915253,14.047562c15.013702,9.057579 26.64032,21.156502 35.477997,35.415543c9.224365,14.882622 15.576416,32.464928 16.109253,55.39875c0.272766,11.749802 -1.592133,22.630783 -4.21936,31.656418c-2.658783,9.135696 -6.934845,16.772293 -10.739258,24.929367c-7.426422,15.922897 -16.737152,30.512329 -26.081085,45.110413c-27.831818,43.481476 -53.95459,87.825409 -65.395172,148.587708z" id="svg_2"/>
   <path stroke-width="12" stroke="#8e8e8e" fill="#ffffff" opacity="0.09" fill-rule="evenodd" clip-rule="evenodd" d="m259.336914,423.407043c26.845886,-25.436584 43.105927,-49.662811 54.901428,-73.762756c8.749603,-17.876587 14.389923,-35.602051 21.817352,-53.468658c2.479706,-5.964355 5.81543,-11.905151 8.673462,-17.951935c5.715424,-12.090485 14.82132,-24.861801 34.480438,-37.481415c19.207703,-12.330154 39.564911,-19.731506 59.479462,-24.138672c32.753632,-7.248505 70.229065,-7.849808 102.523895,3.281631c26.405334,9.10141 41.751587,23.880264 47.688477,37.642868c4.85144,11.246368 4.371094,22.768188 -0.213196,34.326019c-4.784607,12.063293 -14.191223,24.426544 -32.863831,37.332977c-9.566711,6.611908 -20.174622,11.855652 -29.866577,15.7565c-9.809448,3.948303 -19.705475,6.396118 -29.645508,9.327332c-19.40332,5.721863 -39.25174,9.923615 -59.134857,14.116577c-59.222992,12.48822 -117.753448,26.164124 -177.840546,55.019531z" id="svg_3"/>
   <circle stroke-width="12" stroke="#8e8e8e" fill-rule="evenodd" clip-rule="evenodd" cx="258.14703" cy="164.049362" r="35.063557" id="svg_4" fill="#ffffff"/>
  </g>
 </g>
</svg>