<svg xmlns="http://www.w3.org/2000/svg" viewBox="7186.34 -1056.5 21.121 17.63">
  <defs>
    <style>
      .cls-1 {
        fill: #95989a;
      }
    </style>
  </defs>
  <path id="vision-off" class="cls-1" d="M17.853,36.405c-.407-.316-.868-.646-1.372-.966L19,32.881a.89.89,0,0,0-1.268-1.25l-2.871,2.912a10.1,10.1,0,0,0-4.3-1.055h-.055c-2.908.021-5.564,1.666-7.279,3.042C1.537,37.891,0,39.654,0,40.229c0,.651,1.5,2.35,3.268,3.71.37.285.839.62,1.384.96L2.107,47.481a.89.89,0,0,0,1.268,1.25L6.28,45.784a10.252,10.252,0,0,0,4.271,1.038h.056c3.09-.022,5.886-1.868,7.278-2.966,1.759-1.388,3.24-3.117,3.236-3.775C21.117,39.469,19.59,37.752,17.853,36.405ZM6.194,40.186a4.366,4.366,0,0,1,6.746-3.691L6.934,42.586A4.346,4.346,0,0,1,6.194,40.186Zm4.4,4.336a4.344,4.344,0,0,1-2.385-.69l6-6.083a4.366,4.366,0,0,1-3.612,6.772Z" transform="translate(7186.34 -1087.866)"/>
</svg>
