<svg xmlns="http://www.w3.org/2000/svg" viewBox="8188 -514 20 20">
  <defs>
    <style>
      .cls-1 {
        fill: #727272;
      }
    </style>
  </defs>
  <g id="Attach" transform="translate(8196 -586.975)">
    <path id="Path_48" data-name="Path 48" class="cls-1" d="M9.212,8.885a.659.659,0,0,0,0-1,.838.838,0,0,0-1.1,0L3.989,11.636a3.1,3.1,0,0,0,0,4.711,3.944,3.944,0,0,0,5.2,0L18.5,7.923A4.407,4.407,0,0,0,20,4.639a4.407,4.407,0,0,0-1.5-3.284,5.484,5.484,0,0,0-7.274,0L1.937,9.762a5.586,5.586,0,0,0,0,8.459A6.913,6.913,0,0,0,6.61,19.975a6.879,6.879,0,0,0,4.672-1.754L15.4,14.49a.659.659,0,0,0,0-1,.838.838,0,0,0-1.1,0L10.18,17.224a5.4,5.4,0,0,1-7.141-.017,4.267,4.267,0,0,1,0-6.465l9.288-8.407a3.73,3.73,0,0,1,2.526-.946,3.779,3.779,0,0,1,2.526.946,3.052,3.052,0,0,1,1.045,2.287,3.093,3.093,0,0,1-1.045,2.287L8.072,15.333a2.307,2.307,0,0,1-3,0,1.785,1.785,0,0,1,0-2.717L9.212,8.885Z" transform="translate(-8 73)"/>
  </g>
</svg>
