<svg xmlns="http://www.w3.org/2000/svg" viewBox="8475.6 -804.9 39.716 35.905">
  <defs>
    <style>
      .cls-1 {
        fill: #30a4fc;
        fill-rule: evenodd;
      }
    </style>
  </defs>
  <path id="Bubble" class="cls-1" d="M10.941-66.213A17.432,17.432,0,0,1,21.818-70h.4a17.507,17.507,0,0,1,17.5,17.506v.888A17.5,17.5,0,0,1,22.213-34.1h-.4a17.507,17.507,0,0,1-17.5-17.506v-.888q0-.4.018-.8a79.629,79.629,0,0,0-.306-10.835A8.945,8.945,0,0,0,.144-69.74c-.223-.153-.183-.274.091-.264a18.751,18.751,0,0,1,10.314,3.455A3.33,3.33,0,0,1,10.941-66.213Z" transform="translate(8515.315 -839) rotate(180)"/>
</svg>
