<svg xmlns="http://www.w3.org/2000/svg" viewBox="5602 678.2 14.2 13.8">
  <defs>
    <style>
      .cls-1 {
        fill: #95989a;
      }
    </style>
  </defs>
  <g id="Group_2338" data-name="Group 2338" transform="translate(5252 537)">
    <path id="ic_perm_phone_msg_24px" class="cls-1" d="M16.033,12.583a8.709,8.709,0,0,1-2.737-.437.782.782,0,0,0-.782.184l-1.687,1.687A11.557,11.557,0,0,1,5.775,8.972L7.462,7.278A.753.753,0,0,0,7.654,6.5a8.71,8.71,0,0,1-.437-2.737A.769.769,0,0,0,6.45,3H3.767A.769.769,0,0,0,3,3.767,13.032,13.032,0,0,0,16.033,16.8a.769.769,0,0,0,.767-.767V13.35A.769.769,0,0,0,16.033,12.583Z" transform="translate(347 138.2)"/>
    <path id="ic_visibility_24px" class="cls-1" d="M5.2,4.5A4.516,4.516,0,0,0,1,7.364a4.512,4.512,0,0,0,8.4,0A4.516,4.516,0,0,0,5.2,4.5Zm0,4.773A1.909,1.909,0,1,1,7.109,7.364,1.91,1.91,0,0,1,5.2,9.273Zm0-3.055A1.146,1.146,0,1,0,6.346,7.364,1.144,1.144,0,0,0,5.2,6.218Z" transform="translate(354.8 137.136)"/>
  </g>
</svg>
